# xmcd
#
# Track frame offsets:
#	150
#	12905
#	23998
#	37891
#	52906
#	60634
#	70581
#	84468
#	99244
#	110644
#	124364
#	135198
#	149578
#	165686
#	177246
#	190449
#	202651
#	214679
#	226649
#	240863
#	252044
#	264008
#
# Disc length: 3683 seconds
#
# Revision: 0
# Processed by: cddbd v1.5.2PL0 Copyright (c) Steve Scherf et al.
# Submitted via: EasyCDDAExtractor 16.0.6.1
#
DISCID=160e6116
DTITLE=Various Artist - Country Sunset [Disc 09]
DYEAR=1900
DGENRE=Country
TTITLE0=Johnny Cash - Folsom Prison Blues
TTITLE1=Marty Robbins - Singing the Blues
TTITLE2=Larry Gatlin - Houston
TTITLE3=Ed Bruce - You Turn Me on
TTITLE4=Roy Drusky - Peel Me a Nanner
TTITLE5=Webb Pierce - Fool, Fool, Fool
TTITLE6=Jeri Kelly - Walk Me Cross the River
TTITLE7=Jack Greene - Cowboys and Clowns
TTITLE8=Mel McDaniel - Stand Up
TTITLE9=Donna Fargo - You Can't Be a Beacon
TTITLE10=The Everly Brothers - Devoted to You
TTITLE11=Holly Dunn - Starngers Again
TTITLE12=Randy Vanwarmer - Just When I Needed You Most
TTITLE13=George Jones - She Thinks I Still Care
TTITLE14=Johnny Lee - One in a Million
TTITLE15=Waylon Jennings - Don't Think Twice
TTITLE16=The Kendalls - It Don't Feel Like Sinning to Me
TTITLE17=Roy Clark - I Never Picked Cotton
TTITLE18=Tommy Cash - My Heroes Have Always Been Cowboys
TTITLE19=Eddy Arnold - A Full Time Job
TTITLE20=Anne Murray - Last Thing on My Mind
TTITLE21=Skeeter Davis - The End of the World
EXTD=
EXTT0=
EXTT1=
EXTT2=
EXTT3=
EXTT4=
EXTT5=
EXTT6=
EXTT7=
EXTT8=
EXTT9=
EXTT10=
EXTT11=
EXTT12=
EXTT13=
EXTT14=
EXTT15=
EXTT16=
EXTT17=
EXTT18=
EXTT19=
EXTT20=
EXTT21=
PLAYORDER=
